<svg width="10" height="20" viewBox="0 0 10 20" fill="none" xmlns="http://www.w3.org/2000/svg">
<path d="M1.59 19.49C1.45769 19.4895 1.3268 19.4627 1.20493 19.4112C1.08305 19.3597 0.97261 19.2845 0.879995 19.19C0.693744 19.0026 0.589203 18.7492 0.589203 18.485C0.589203 18.2208 0.693744 17.9674 0.879995 17.78L6.54 12.12C7.1018 11.5575 7.41736 10.795 7.41736 10C7.41736 9.205 7.1018 8.44251 6.54 7.88001L0.879995 2.22001C0.716169 2.02871 0.630562 1.78263 0.640284 1.53095C0.650005 1.27928 0.754338 1.04054 0.932432 0.862443C1.11053 0.684349 1.34927 0.580016 1.60094 0.570295C1.85262 0.560574 2.09869 0.64618 2.29 0.810007L8 6.46001C8.46563 6.92446 8.83506 7.47622 9.08712 8.08367C9.33919 8.69112 9.46893 9.34233 9.46893 10C9.46893 10.6577 9.33919 11.3089 9.08712 11.9163C8.83506 12.5238 8.46563 13.0756 8 13.54L2.34 19.19C2.24272 19.2894 2.12578 19.3674 1.99663 19.4191C1.86749 19.4708 1.729 19.4949 1.59 19.49Z" fill="black"/>
</svg>
