<svg width="20" height="10" viewBox="0 0 20 10" fill="none" xmlns="http://www.w3.org/2000/svg">
<path d="M9.99998 9.41001C8.68012 9.4257 7.40761 8.91885 6.45998 8.00001L0.809976 2.29001C0.64615 2.09871 0.560544 1.85264 0.570265 1.60096C0.579986 1.34928 0.684318 1.11055 0.862413 0.932451C1.04051 0.754357 1.27925 0.650024 1.53092 0.640303C1.7826 0.630582 2.02867 0.716188 2.21998 0.880014L7.87998 6.54002C8.45225 7.08302 9.21108 7.38574 9.99998 7.38574C10.7889 7.38574 11.5477 7.08302 12.12 6.54002L17.78 0.880014C17.9713 0.716188 18.2174 0.630582 18.469 0.640303C18.7207 0.650024 18.9594 0.754357 19.1375 0.932451C19.3156 1.11055 19.42 1.34928 19.4297 1.60096C19.4394 1.85264 19.3538 2.09871 19.19 2.29001L13.54 8.00001C12.5923 8.91885 11.3198 9.4257 9.99998 9.41001Z" fill="black"/>
</svg>
