<svg width="20" height="22" viewBox="0 0 20 22" fill="none" xmlns="http://www.w3.org/2000/svg">
<path d="M5.47001 22C4.4798 22.0018 3.51137 21.7095 2.68747 21.1602C1.86358 20.6109 1.22134 19.8294 0.842164 18.9146C0.462989 17.9999 0.363958 16.9932 0.557626 16.0221C0.751294 15.051 1.22894 14.1593 1.93001 13.46L10.41 4.98001C10.9723 4.41642 11.7354 4.09928 12.5315 4.09834C13.3276 4.0974 14.0914 4.41275 14.655 4.97501C15.2186 5.53727 15.5357 6.30038 15.5367 7.09647C15.5376 7.89257 15.2223 8.65642 14.66 9.22001L6.17001 17.71C5.98265 17.8963 5.72919 18.0008 5.46501 18.0008C5.20082 18.0008 4.94737 17.8963 4.76001 17.71C4.66628 17.617 4.59188 17.5064 4.54112 17.3846C4.49035 17.2627 4.46421 17.132 4.46421 17C4.46421 16.868 4.49035 16.7373 4.54112 16.6154C4.59188 16.4936 4.66628 16.383 4.76001 16.29L13.24 7.81001C13.3337 7.71705 13.4081 7.60644 13.4589 7.48459C13.5097 7.36273 13.5358 7.23202 13.5358 7.10001C13.5358 6.968 13.5097 6.83729 13.4589 6.71543C13.4081 6.59357 13.3337 6.48297 13.24 6.39001C13.0526 6.20376 12.7992 6.09922 12.535 6.09922C12.2708 6.09922 12.0174 6.20376 11.83 6.39001L3.34001 14.83C2.77775 15.3936 2.4624 16.1575 2.46334 16.9535C2.46428 17.7496 2.78142 18.5128 3.34501 19.075C3.90859 19.6373 4.67245 19.9526 5.46854 19.9517C6.26464 19.9507 7.02775 19.6336 7.59001 19.07L16.07 10.59C17.0089 9.65247 17.5368 8.38036 17.5378 7.05354C17.5387 5.72672 17.0125 4.45388 16.075 3.51501C15.1375 2.57614 13.8654 2.04817 12.5385 2.04723C11.2117 2.04629 9.93887 2.57247 9.00001 3.51001L4.05001 8.51001C3.85871 8.67384 3.61263 8.75944 3.36095 8.74972C3.10928 8.74 2.87054 8.63567 2.69244 8.45757C2.51435 8.27948 2.41002 8.04074 2.4003 7.78906C2.39057 7.53739 2.47618 7.29131 2.64001 7.10001L7.59001 2.10001C8.90283 0.787187 10.6834 0.0496521 12.54 0.0496521C14.3966 0.0496521 16.1772 0.787187 17.49 2.10001C18.8028 3.41283 19.5404 5.1934 19.5404 7.05001C19.5404 8.90662 18.8028 10.6872 17.49 12L9.00001 20.48C8.54096 20.9537 7.99273 21.3319 7.38689 21.5927C6.78105 21.8536 6.12958 21.992 5.47001 22Z" fill="black"/>
</svg>
