<svg width="23" height="23" viewBox="0 0 23 23" fill="none" xmlns="http://www.w3.org/2000/svg">
<path d="M20.19 8.46001L8.19 20.46C7.9139 20.7302 7.56738 20.9173 7.19 21L3.65 21.71C3.32772 21.7737 2.9947 21.7571 2.68037 21.6616C2.36605 21.566 2.0801 21.3945 1.8478 21.1622C1.61549 20.9299 1.44399 20.644 1.34845 20.3296C1.25291 20.0153 1.23627 19.6823 1.3 19.36L2 15.85C2.08268 15.4726 2.2698 15.1261 2.54 14.85L14.38 3.00001C14.7666 2.6039 15.2285 2.28912 15.7386 2.0742C16.2486 1.85928 16.7965 1.74857 17.35 1.74857C17.9035 1.74857 18.4514 1.85928 18.9615 2.0742C19.4715 2.28912 19.9334 2.6039 20.32 3.00001C21.009 3.75995 21.3796 4.75552 21.3554 5.78098C21.3312 6.80644 20.914 7.78341 20.19 8.51001V8.46001Z" stroke="black" stroke-width="2" stroke-linecap="round" stroke-linejoin="round"/>
</svg>
