<svg width="24" height="24" viewBox="0 0 24 24" fill="none" xmlns="http://www.w3.org/2000/svg">
<path d="M15 19C14.7348 19 14.4804 19.1054 14.2929 19.2929C14.1054 19.4804 14 19.7348 14 20V21C14 21.2652 13.8946 21.5196 13.7071 21.7071C13.5196 21.8946 13.2652 22 13 22H3C2.73478 22 2.48043 21.8946 2.29289 21.7071C2.10536 21.5196 2 21.2652 2 21V3C2 2.73478 2.10536 2.48043 2.29289 2.29289C2.48043 2.10536 2.73478 2 3 2H13C13.2652 2 13.5196 2.10536 13.7071 2.29289C13.8946 2.48043 14 2.73478 14 3V4C14 4.26522 14.1054 4.51957 14.2929 4.70711C14.4804 4.89464 14.7348 5 15 5C15.2652 5 15.5196 4.89464 15.7071 4.70711C15.8946 4.51957 16 4.26522 16 4V3C16 2.20435 15.6839 1.44129 15.1213 0.87868C14.5587 0.316071 13.7956 0 13 0H3C2.20435 0 1.44129 0.316071 0.87868 0.87868C0.316071 1.44129 0 2.20435 0 3V21C0 21.7956 0.316071 22.5587 0.87868 23.1213C1.44129 23.6839 2.20435 24 3 24H13C13.7956 24 14.5587 23.6839 15.1213 23.1213C15.6839 22.5587 16 21.7956 16 21V20C16 19.7348 15.8946 19.4804 15.7071 19.2929C15.5196 19.1054 15.2652 19 15 19Z" fill="black"/>
<path d="M23.12 9.88L20.29 7.05C20.0987 6.88617 19.8526 6.80056 19.6009 6.81029C19.3493 6.82001 19.1105 6.92434 18.9324 7.10243C18.7543 7.28053 18.65 7.51927 18.6403 7.77094C18.6306 8.02262 18.7162 8.2687 18.88 8.46L21.41 11H7C6.73478 11 6.48043 11.1054 6.29289 11.2929C6.10536 11.4804 6 11.7348 6 12C6 12.2652 6.10536 12.5196 6.29289 12.7071C6.48043 12.8946 6.73478 13 7 13H21.41L18.88 15.54C18.6937 15.7274 18.5892 15.9808 18.5892 16.245C18.5892 16.5092 18.6937 16.7626 18.88 16.95C19.0674 17.1362 19.3208 17.2408 19.585 17.2408C19.8492 17.2408 20.1026 17.1362 20.29 16.95L23.12 14.12C23.6818 13.5575 23.9974 12.795 23.9974 12C23.9974 11.205 23.6818 10.4425 23.12 9.88Z" fill="black"/>
</svg>
