<svg width="21" height="21" viewBox="0 0 21 21" fill="none" xmlns="http://www.w3.org/2000/svg">
<path d="M20.61 19.19L17 15.62C18.4419 13.8251 19.1411 11.5458 18.9537 9.25107C18.7663 6.95635 17.7066 4.8207 15.9926 3.28347C14.2786 1.74624 12.0406 0.924351 9.73912 0.986873C7.43761 1.0494 5.24758 1.99158 3.61956 3.61959C1.99155 5.24761 1.04937 7.43764 0.986843 9.73915C0.924321 12.0407 1.74621 14.2786 3.28344 15.9926C4.82067 17.7066 6.95632 18.7663 9.25104 18.9537C11.5458 19.1411 13.825 18.4419 15.62 17L19.19 20.58C19.2829 20.6737 19.3935 20.7481 19.5154 20.7989C19.6372 20.8497 19.768 20.8758 19.9 20.8758C20.032 20.8758 20.1627 20.8497 20.2845 20.7989C20.4064 20.7481 20.517 20.6737 20.61 20.58C20.7902 20.3935 20.891 20.1443 20.891 19.885C20.891 19.6257 20.7902 19.3765 20.61 19.19ZM5.04997 15C4.07817 14.0182 3.41859 12.7708 3.15428 11.4149C2.88998 10.059 3.03277 8.65523 3.56468 7.38032C4.09659 6.10541 4.99383 5.01639 6.14342 4.25038C7.29301 3.48437 8.64355 3.07563 10.025 3.07563C11.4064 3.07563 12.7569 3.48437 13.9065 4.25038C15.0561 5.01639 15.9533 6.10541 16.4853 7.38032C17.0172 8.65523 17.16 10.059 16.8957 11.4149C16.6314 12.7708 15.9718 14.0182 15 15C14.3491 15.6576 13.5742 16.1796 12.7203 16.5359C11.8663 16.8922 10.9502 17.0756 10.025 17.0756C9.09969 17.0756 8.18359 16.8922 7.32965 16.5359C6.47572 16.1796 5.70088 15.6576 5.04997 15Z" fill="black"/>
</svg>
