<svg width="24" height="18" viewBox="0 0 24 18" fill="none" xmlns="http://www.w3.org/2000/svg">
<path d="M23 2H1C0.734784 2 0.48043 1.89464 0.292893 1.70711C0.105357 1.51957 0 1.26522 0 1C0 0.734784 0.105357 0.48043 0.292893 0.292893C0.48043 0.105357 0.734784 0 1 0H23C23.2652 0 23.5196 0.105357 23.7071 0.292893C23.8946 0.48043 24 0.734784 24 1C24 1.26522 23.8946 1.51957 23.7071 1.70711C23.5196 1.89464 23.2652 2 23 2Z" fill="black"/>
<path d="M19 10H5C4.73478 10 4.48043 9.89464 4.29289 9.70711C4.10536 9.51957 4 9.26522 4 9C4 8.73478 4.10536 8.48043 4.29289 8.29289C4.48043 8.10536 4.73478 8 5 8H19C19.2652 8 19.5196 8.10536 19.7071 8.29289C19.8946 8.48043 20 8.73478 20 9C20 9.26522 19.8946 9.51957 19.7071 9.70711C19.5196 9.89464 19.2652 10 19 10Z" fill="black"/>
<path d="M15 18H9C8.73478 18 8.48043 17.8946 8.29289 17.7071C8.10536 17.5196 8 17.2652 8 17C8 16.7348 8.10536 16.4804 8.29289 16.2929C8.48043 16.1054 8.73478 16 9 16H15C15.2652 16 15.5196 16.1054 15.7071 16.2929C15.8946 16.4804 16 16.7348 16 17C16 17.2652 15.8946 17.5196 15.7071 17.7071C15.5196 17.8946 15.2652 18 15 18Z" fill="black"/>
</svg>
