<svg width="25" height="24" viewBox="0 0 25 24" fill="none" xmlns="http://www.w3.org/2000/svg">
<path d="M12.5 0C10.1266 0 7.80655 0.703788 5.83316 2.02236C3.85977 3.34094 2.3217 5.21509 1.41345 7.4078C0.505199 9.60051 0.267559 12.0133 0.730582 14.3411C1.1936 16.6689 2.33649 18.8071 4.01472 20.4853C5.69295 22.1635 7.83115 23.3064 10.1589 23.7694C12.4867 24.2324 14.8995 23.9948 17.0922 23.0866C19.2849 22.1783 21.1591 20.6402 22.4776 18.6668C23.7962 16.6935 24.5 14.3734 24.5 12C24.5 8.8174 23.2357 5.76515 20.9853 3.51472C18.7348 1.26428 15.6826 0 12.5 0ZM18.16 9.59L12.5 15.24C11.9375 15.8018 11.175 16.1174 10.38 16.1174C9.585 16.1174 8.82251 15.8018 8.26001 15.24L6.84001 13.83C6.74677 13.7368 6.67281 13.6261 6.62235 13.5042C6.57189 13.3824 6.54591 13.2519 6.54591 13.12C6.54591 12.9881 6.57189 12.8576 6.62235 12.7358C6.67281 12.6139 6.74677 12.5032 6.84001 12.41C6.93324 12.3168 7.04393 12.2428 7.16576 12.1923C7.28758 12.1419 7.41815 12.1159 7.55001 12.1159C7.68187 12.1159 7.81243 12.1419 7.93425 12.1923C8.05608 12.2428 8.16677 12.3168 8.26001 12.41L9.67001 13.83C9.76297 13.9237 9.87357 13.9981 9.99543 14.0489C10.1173 14.0997 10.248 14.1258 10.38 14.1258C10.512 14.1258 10.6427 14.0997 10.7646 14.0489C10.8864 13.9981 10.997 13.9237 11.09 13.83L16.74 8.17C16.8332 8.07676 16.9439 8.0028 17.0658 7.95234C17.1876 7.90188 17.3181 7.87591 17.45 7.87591C17.5819 7.87591 17.7124 7.90188 17.8343 7.95234C17.9561 8.0028 18.0668 8.07676 18.16 8.17C18.2532 8.26324 18.3272 8.37393 18.3777 8.49575C18.4281 8.61757 18.4541 8.74814 18.4541 8.88C18.4541 9.01186 18.4281 9.14243 18.3777 9.26425C18.3272 9.38607 18.2532 9.49676 18.16 9.59Z" fill="#5233FF"/>
</svg>
