<svg width="24" height="26" viewBox="0 0 24 26" fill="none" xmlns="http://www.w3.org/2000/svg">
<path d="M23 4H16V3C16 2.20435 15.6839 1.44129 15.1213 0.87868C14.5587 0.316071 13.7956 0 13 0H11C10.2044 0 9.44129 0.316071 8.87868 0.87868C8.31607 1.44129 8 2.20435 8 3V4H1C0.734784 4 0.48043 4.10536 0.292893 4.29289C0.105357 4.48043 0 4.73478 0 5C0 5.26522 0.105357 5.51957 0.292893 5.70711C0.48043 5.89464 0.734784 6 1 6H2.09L3.64 21.5C3.76437 22.7376 4.34557 23.8844 5.27012 24.7165C6.19467 25.5486 7.39617 26.0062 8.64 26H15.4C16.6438 26.0062 17.8453 25.5486 18.7699 24.7165C19.6944 23.8844 20.2756 22.7376 20.4 21.5L21.91 6H23C23.2652 6 23.5196 5.89464 23.7071 5.70711C23.8946 5.51957 24 5.26522 24 5C24 4.73478 23.8946 4.48043 23.7071 4.29289C23.5196 4.10536 23.2652 4 23 4ZM10 3C10 2.73478 10.1054 2.48043 10.2929 2.29289C10.4804 2.10536 10.7348 2 11 2H13C13.2652 2 13.5196 2.10536 13.7071 2.29289C13.8946 2.48043 14 2.73478 14 3V4H10V3ZM10.09 19H10C9.74966 19.001 9.50805 18.9081 9.3229 18.7396C9.13775 18.5711 9.02253 18.3393 9 18.09L8.48 12.09C8.45746 11.8248 8.54119 11.5615 8.71279 11.358C8.88439 11.1545 9.12978 11.0275 9.395 11.005C9.66022 10.9825 9.92353 11.0662 10.127 11.2378C10.3305 11.4094 10.4575 11.6548 10.48 11.92L11.01 17.92C11.0209 18.0514 11.0058 18.1837 10.9654 18.3092C10.925 18.4347 10.8602 18.551 10.7747 18.6514C10.6892 18.7518 10.5847 18.8343 10.4672 18.8941C10.3497 18.9539 10.2215 18.9899 10.09 19ZM15 18.09C14.9775 18.3393 14.8623 18.5711 14.6771 18.7396C14.4919 18.9081 14.2503 19.001 14 19H13.91C13.7785 18.9887 13.6505 18.9515 13.5334 18.8905C13.4164 18.8295 13.3126 18.7459 13.228 18.6445C13.1434 18.5432 13.0797 18.4261 13.0405 18.3001C13.0014 18.174 12.9876 18.0414 13 17.91L13.53 11.91C13.5525 11.6448 13.6795 11.3994 13.883 11.2278C14.0865 11.0562 14.3498 10.9725 14.615 10.995C14.8802 11.0175 15.1256 11.1445 15.2972 11.348C15.4688 11.5515 15.5525 11.8148 15.53 12.08L15 18.09Z" fill="black"/>
</svg>
