<svg width="56" height="56" viewBox="0 0 56 56" fill="none" xmlns="http://www.w3.org/2000/svg">
<circle cx="28" cy="28" r="28" fill="#FD3C4A"/>
<path d="M35 26H21C19.6739 26 18.4021 26.5268 17.4645 27.4645C16.5268 28.4021 16 29.6739 16 31V37C16 38.3261 16.5268 39.5979 17.4645 40.5355C18.4021 41.4732 19.6739 42 21 42H35C36.3261 42 37.5979 41.4732 38.5355 40.5355C39.4732 39.5979 40 38.3261 40 37V31C40 29.6739 39.4732 28.4021 38.5355 27.4645C37.5979 26.5268 36.3261 26 35 26ZM28 38C27.2089 38 26.4355 37.7654 25.7777 37.3259C25.1199 36.8864 24.6072 36.2616 24.3045 35.5307C24.0017 34.7998 23.9225 33.9956 24.0769 33.2196C24.2312 32.4437 24.6122 31.731 25.1716 31.1716C25.731 30.6122 26.4437 30.2312 27.2196 30.0769C27.9956 29.9225 28.7998 30.0017 29.5307 30.3045C30.2616 30.6072 30.8864 31.1199 31.3259 31.7777C31.7654 32.4355 32 33.2089 32 34C32 35.0609 31.5786 36.0783 30.8284 36.8284C30.0783 37.5786 29.0609 38 28 38Z" fill="#FCFCFC"/>
<path d="M28 36C29.1046 36 30 35.1046 30 34C30 32.8954 29.1046 32 28 32C26.8954 32 26 32.8954 26 34C26 35.1046 26.8954 36 28 36Z" fill="#FCFCFC"/>
<path d="M28.71 14.29C28.617 14.1963 28.5064 14.1219 28.3845 14.0711C28.2627 14.0203 28.132 13.9942 28 13.9942C27.868 13.9942 27.7372 14.0203 27.6154 14.0711C27.4935 14.1219 27.3829 14.1963 27.29 14.29L23.05 18.54C22.8564 18.727 22.745 18.9832 22.7403 19.2523C22.7356 19.5214 22.838 19.7814 23.025 19.975C23.2119 20.1686 23.4682 20.28 23.7373 20.2847C24.0064 20.2894 24.2664 20.187 24.46 20L27 17.41V23C27 23.2652 27.1053 23.5196 27.2929 23.7071C27.4804 23.8946 27.7347 24 28 24C28.2652 24 28.5195 23.8946 28.7071 23.7071C28.8946 23.5196 29 23.2652 29 23V17.41L31.54 20C31.7262 20.1847 31.9776 20.2889 32.24 20.29C32.3799 20.2976 32.5199 20.2757 32.6508 20.2258C32.7817 20.1758 32.9007 20.0989 33 20C33.1862 19.8126 33.2908 19.5592 33.2908 19.295C33.2908 19.0308 33.1862 18.7774 33 18.59L28.71 14.29Z" fill="#FCFCFC"/>
</svg>
