<svg width="56" height="56" viewBox="0 0 56 56" fill="none" xmlns="http://www.w3.org/2000/svg">
<circle cx="28" cy="28" r="28" fill="#00A86B"/>
<path d="M35 26H21C19.6739 26 18.4021 26.5268 17.4645 27.4645C16.5268 28.4021 16 29.6739 16 31V37C16 38.3261 16.5268 39.5979 17.4645 40.5355C18.4021 41.4732 19.6739 42 21 42H35C36.3261 42 37.5979 41.4732 38.5355 40.5355C39.4732 39.5979 40 38.3261 40 37V31C40 29.6739 39.4732 28.4021 38.5355 27.4645C37.5979 26.5268 36.3261 26 35 26ZM28 38C27.2089 38 26.4355 37.7654 25.7777 37.3259C25.1199 36.8864 24.6072 36.2616 24.3045 35.5307C24.0017 34.7998 23.9225 33.9956 24.0769 33.2196C24.2312 32.4437 24.6122 31.731 25.1716 31.1716C25.731 30.6122 26.4437 30.2312 27.2196 30.0769C27.9956 29.9225 28.7998 30.0017 29.5307 30.3045C30.2616 30.6072 30.8864 31.1199 31.3259 31.7777C31.7654 32.4355 32 33.2089 32 34C32 35.0609 31.5786 36.0783 30.8284 36.8284C30.0783 37.5786 29.0609 38 28 38Z" fill="#FCFCFC"/>
<path d="M28 36C29.1046 36 30 35.1046 30 34C30 32.8954 29.1046 32 28 32C26.8954 32 26 32.8954 26 34C26 35.1046 26.8954 36 28 36Z" fill="#FCFCFC"/>
<path d="M28 14C27.7348 14 27.4805 14.1054 27.2929 14.2929C27.1054 14.4804 27 14.7348 27 15V20.59L24.46 18.05C24.2687 17.8862 24.0227 17.8006 23.771 17.8103C23.5193 17.82 23.2806 17.9243 23.1025 18.1024C22.9244 18.2805 22.82 18.5193 22.8103 18.7709C22.8006 19.0226 22.8862 19.2687 23.05 19.46L27.29 23.71C27.3822 23.8 27.4908 23.8713 27.61 23.92C27.7334 23.9723 27.866 23.9992 28 23.9992C28.134 23.9992 28.2666 23.9723 28.39 23.92C28.5092 23.8713 28.6179 23.8 28.71 23.71L33 19.46C33.1639 19.2687 33.2495 19.0226 33.2397 18.7709C33.23 18.5193 33.1257 18.2805 32.9476 18.1024C32.7695 17.9243 32.5308 17.82 32.2791 17.8103C32.0274 17.8006 31.7813 17.8862 31.59 18.05L29 20.59V15C29 14.7348 28.8947 14.4804 28.7071 14.2929C28.5196 14.1054 28.2652 14 28 14Z" fill="#FCFCFC"/>
</svg>
