<svg width="56" height="56" viewBox="0 0 56 56" fill="none" xmlns="http://www.w3.org/2000/svg">
<g filter="url(#filter0_d_826_382)">
<rect x="4" width="48" height="48" rx="16" fill="#FCFCFC"/>
<path d="M35 22H21C19.6739 22 18.4021 22.5268 17.4645 23.4645C16.5268 24.4021 16 25.6739 16 27V33C16 34.3261 16.5268 35.5979 17.4645 36.5355C18.4021 37.4732 19.6739 38 21 38H35C36.3261 38 37.5979 37.4732 38.5355 36.5355C39.4732 35.5979 40 34.3261 40 33V27C40 25.6739 39.4732 24.4021 38.5355 23.4645C37.5979 22.5268 36.3261 22 35 22ZM28 34C27.2089 34 26.4355 33.7654 25.7777 33.3259C25.1199 32.8864 24.6072 32.2616 24.3045 31.5307C24.0017 30.7998 23.9225 29.9956 24.0769 29.2196C24.2312 28.4437 24.6122 27.731 25.1716 27.1716C25.731 26.6122 26.4437 26.2312 27.2196 26.0769C27.9956 25.9225 28.7998 26.0017 29.5307 26.3045C30.2616 26.6072 30.8864 27.1199 31.3259 27.7777C31.7654 28.4355 32 29.2089 32 30C32 31.0609 31.5786 32.0783 30.8284 32.8284C30.0783 33.5786 29.0609 34 28 34Z" fill="#00A86B"/>
<path d="M28 32C29.1046 32 30 31.1046 30 30C30 28.8954 29.1046 28 28 28C26.8954 28 26 28.8954 26 30C26 31.1046 26.8954 32 28 32Z" fill="#00A86B"/>
<path d="M28 10C27.7348 10 27.4805 10.1054 27.2929 10.2929C27.1054 10.4804 27 10.7348 27 11V16.59L24.46 14.05C24.2687 13.8862 24.0227 13.8006 23.771 13.8103C23.5193 13.82 23.2806 13.9243 23.1025 14.1024C22.9244 14.2805 22.82 14.5193 22.8103 14.7709C22.8006 15.0226 22.8862 15.2687 23.05 15.46L27.29 19.71C27.3822 19.8 27.4908 19.8713 27.61 19.92C27.7334 19.9723 27.866 19.9992 28 19.9992C28.134 19.9992 28.2666 19.9723 28.39 19.92C28.5092 19.8713 28.6179 19.8 28.71 19.71L33 15.46C33.1639 15.2687 33.2495 15.0226 33.2397 14.7709C33.23 14.5193 33.1257 14.2805 32.9476 14.1024C32.7695 13.9243 32.5308 13.82 32.2791 13.8103C32.0274 13.8006 31.7813 13.8862 31.59 14.05L29 16.59V11C29 10.7348 28.8947 10.4804 28.7071 10.2929C28.5196 10.1054 28.2652 10 28 10Z" fill="#00A86B"/>
</g>
<defs>
<filter id="filter0_d_826_382" x="0" y="0" width="56" height="56" filterUnits="userSpaceOnUse" color-interpolation-filters="sRGB">
<feFlood flood-opacity="0" result="BackgroundImageFix"/>
<feColorMatrix in="SourceAlpha" type="matrix" values="0 0 0 0 0 0 0 0 0 0 0 0 0 0 0 0 0 0 127 0" result="hardAlpha"/>
<feOffset dy="4"/>
<feGaussianBlur stdDeviation="2"/>
<feComposite in2="hardAlpha" operator="out"/>
<feColorMatrix type="matrix" values="0 0 0 0 0 0 0 0 0 0 0 0 0 0 0 0 0 0 0.25 0"/>
<feBlend mode="normal" in2="BackgroundImageFix" result="effect1_dropShadow_826_382"/>
<feBlend mode="normal" in="SourceGraphic" in2="effect1_dropShadow_826_382" result="shape"/>
</filter>
</defs>
</svg>
