<svg width="24" height="26" viewBox="0 0 24 26" fill="none" xmlns="http://www.w3.org/2000/svg">
<path d="M23 21C22.7348 21 22.4804 21.1054 22.2929 21.2929C22.1054 21.4804 22 21.7348 22 22C21.9986 22.3507 21.905 22.6949 21.7286 22.9981C21.5521 23.3012 21.2991 23.5526 20.9948 23.7271C20.6906 23.9015 20.3458 23.9929 19.995 23.992C19.6443 23.9912 19.3 23.8981 18.9966 23.7221C18.6932 23.5461 18.4414 23.2935 18.2665 22.9895C18.0916 22.6855 17.9997 22.3408 18 21.9901C18.0004 21.6393 18.0929 21.2949 18.2685 20.9912C18.444 20.6875 18.6963 20.4354 19 20.26C18.9719 20.4653 19.0083 20.6743 19.1042 20.858C19.2001 21.0418 19.3506 21.1912 19.5351 21.2856C19.7196 21.38 19.9288 21.4148 20.1339 21.3852C20.339 21.3555 20.5298 21.2628 20.68 21.12L22.09 19.71C22.1837 19.617 22.2581 19.5064 22.3089 19.3846C22.3597 19.2627 22.3858 19.132 22.3858 19C22.3858 18.868 22.3597 18.7373 22.3089 18.6154C22.2581 18.4936 22.1837 18.383 22.09 18.29L20.68 16.88C20.587 16.7863 20.4764 16.7119 20.3546 16.6611C20.2327 16.6104 20.102 16.5842 19.97 16.5842C19.838 16.5842 19.7073 16.6104 19.5854 16.6611C19.4636 16.7119 19.353 16.7863 19.26 16.88C19.1082 17.0393 19.0132 17.2442 18.9897 17.463C18.9662 17.6817 19.0155 17.9021 19.13 18.09C18.3945 18.2539 17.7202 18.6223 17.1848 19.1526C16.6495 19.683 16.2749 20.3538 16.1041 21.0877C15.9333 21.8217 15.9733 22.589 16.2195 23.3012C16.4657 24.0134 16.9081 24.6416 17.4958 25.1133C18.0834 25.5851 18.7923 25.8813 19.5409 25.9678C20.2895 26.0543 21.0473 25.9276 21.727 25.6022C22.4067 25.2769 22.9807 24.7661 23.3828 24.1288C23.785 23.4915 23.9989 22.7536 24 22C24 21.7348 23.8946 21.4804 23.7071 21.2929C23.5196 21.1054 23.2652 21 23 21Z" fill="black"/>
<path d="M18.58 1.53001C18.1448 1.26116 17.648 1.10809 17.1369 1.08534C16.6258 1.06259 16.1174 1.17091 15.66 1.40001L15.36 1.55001C15.2311 1.60796 15.0913 1.63792 14.95 1.63792C14.8087 1.63792 14.6689 1.60796 14.54 1.55001L11.11 0.210006C10.3972 -0.0738674 9.60278 -0.0738674 8.89 0.210006L5.46 1.58001C5.33108 1.63796 5.19134 1.66792 5.05 1.66792C4.90866 1.66792 4.76892 1.63796 4.64 1.58001L4.34 1.43001C3.88519 1.20291 3.38014 1.09511 2.87224 1.11672C2.36435 1.13834 1.87028 1.28866 1.43641 1.55358C1.00254 1.8185 0.643112 2.18933 0.391856 2.63125C0.1406 3.07317 0.0057622 3.57169 0 4.08001V19C0 20.3261 0.526784 21.5979 1.46447 22.5355C2.40215 23.4732 3.67392 24 5 24H14.38C14.136 23.3611 14.0073 22.6839 14 22V21.92C14.0016 20.843 14.2931 19.7864 14.8438 18.8609C15.3946 17.9354 16.1842 17.1752 17.13 16.66C17.2689 16.1773 17.5268 15.7372 17.88 15.38L18 15.27C18.1894 15.1032 18.3974 14.9589 18.62 14.84C18.9872 14.6535 19.3889 14.5445 19.8 14.52H20V4.08001C20 3.56923 19.8695 3.06692 19.621 2.62067C19.3725 2.17443 19.0142 1.79901 18.58 1.53001ZM12 17H6C5.73478 17 5.48043 16.8946 5.29289 16.7071C5.10536 16.5196 5 16.2652 5 16C5 15.7348 5.10536 15.4804 5.29289 15.2929C5.48043 15.1054 5.73478 15 6 15H12C12.2652 15 12.5196 15.1054 12.7071 15.2929C12.8946 15.4804 13 15.7348 13 16C13 16.2652 12.8946 16.5196 12.7071 16.7071C12.5196 16.8946 12.2652 17 12 17ZM14 11H6C5.73478 11 5.48043 10.8946 5.29289 10.7071C5.10536 10.5196 5 10.2652 5 10C5 9.73479 5.10536 9.48044 5.29289 9.2929C5.48043 9.10536 5.73478 9.00001 6 9.00001H14C14.2652 9.00001 14.5196 9.10536 14.7071 9.2929C14.8946 9.48044 15 9.73479 15 10C15 10.2652 14.8946 10.5196 14.7071 10.7071C14.5196 10.8946 14.2652 11 14 11Z" fill="black"/>
</svg>
