<svg width="22" height="24" viewBox="0 0 22 24" fill="none" xmlns="http://www.w3.org/2000/svg">
<path d="M17 0C15.6739 0 14.4021 0.526784 13.4645 1.46447C12.5268 2.40215 12 3.67392 12 5V7C11.9998 8.15265 12.3978 9.26999 13.1267 10.1629C13.8556 11.0558 14.8706 11.6695 16 11.9V14.18C15.4165 14.3863 14.911 14.7681 14.5529 15.2729C14.1949 15.7778 14.0017 16.3811 14 17V21C14 21.7956 14.3161 22.5587 14.8787 23.1213C15.4413 23.6839 16.2044 24 17 24C17.7956 24 18.5587 23.6839 19.1213 23.1213C19.6839 22.5587 20 21.7956 20 21V17C19.9983 16.3811 19.8051 15.7778 19.4471 15.2729C19.089 14.7681 18.5835 14.3863 18 14.18V11.9C19.1294 11.6695 20.1444 11.0558 20.8733 10.1629C21.6022 9.26999 22.0002 8.15265 22 7V5C22 3.67392 21.4732 2.40215 20.5355 1.46447C19.5979 0.526784 18.3261 0 17 0Z" fill="black"/>
<path d="M9 0C8.73478 0 8.48043 0.105357 8.29289 0.292893C8.10536 0.48043 8 0.734784 8 1V5C8 5.26522 7.89464 5.51957 7.70711 5.70711C7.51957 5.89464 7.26522 6 7 6C6.73478 6 6.48043 5.89464 6.29289 5.70711C6.10536 5.51957 6 5.26522 6 5V1C6 0.734784 5.89464 0.48043 5.70711 0.292893C5.51957 0.105357 5.26522 0 5 0C4.73478 0 4.48043 0.105357 4.29289 0.292893C4.10536 0.48043 4 0.734784 4 1V5C4 5.26522 3.89464 5.51957 3.70711 5.70711C3.51957 5.89464 3.26522 6 3 6C2.73478 6 2.48043 5.89464 2.29289 5.70711C2.10536 5.51957 2 5.26522 2 5V1C2 0.734784 1.89464 0.48043 1.70711 0.292893C1.51957 0.105357 1.26522 0 1 0C0.734784 0 0.48043 0.105357 0.292893 0.292893C0.105357 0.48043 1.04228e-07 0.734784 1.04228e-07 1V7C-0.000235151 8.15265 0.397783 9.26999 1.12669 10.1629C1.8556 11.0558 2.87064 11.6695 4 11.9V14.18C3.41645 14.3863 2.911 14.7681 2.55294 15.2729C2.19488 15.7778 2.00174 16.3811 2 17V21C2 21.7956 2.31607 22.5587 2.87868 23.1213C3.44129 23.6839 4.20435 24 5 24C5.79565 24 6.55871 23.6839 7.12132 23.1213C7.68393 22.5587 8 21.7956 8 21V17C7.99826 16.3811 7.80512 15.7778 7.44706 15.2729C7.089 14.7681 6.58355 14.3863 6 14.18V11.9C7.12936 11.6695 8.1444 11.0558 8.87331 10.1629C9.60222 9.26999 10.0002 8.15265 10 7V1C10 0.734784 9.89464 0.48043 9.70711 0.292893C9.51957 0.105357 9.26522 0 9 0Z" fill="black"/>
</svg>
