<svg width="20" height="25" viewBox="0 0 20 25" fill="none" xmlns="http://www.w3.org/2000/svg">
<path d="M17.07 9.94002C16.3883 9.24967 15.6061 8.6664 14.75 8.21002C14.5261 8.08475 14.2958 7.97127 14.06 7.87002C13.5847 7.65505 13.0931 7.47784 12.59 7.34002L12.11 7.23002C11.76 7.16002 11.42 7.11002 11.11 7.07002H10.64H10.4C10.1437 7.05023 9.88628 7.05023 9.63 7.07002H9.41H9.04H8.9C8.56384 7.09888 8.22984 7.14898 7.9 7.22002L7.43 7.33002C6.93124 7.46732 6.44326 7.64113 5.97 7.85002C5.73 7.96002 5.49 8.07002 5.27 8.19002C3.67731 9.04506 2.34618 10.3158 1.4182 11.8672C0.490226 13.4185 0.00011285 15.1923 0 17V20C0 21.3261 0.526784 22.5979 1.46447 23.5356C2.40215 24.4732 3.67392 25 5 25H15C16.3261 25 17.5979 24.4732 18.5355 23.5356C19.4732 22.5979 20 21.3261 20 20V17C20.0061 15.6874 19.7501 14.3869 19.247 13.1745C18.7438 11.9622 18.0037 10.8625 17.07 9.94002ZM9.5 15H10.5C11.163 14.9337 11.8253 15.1335 12.341 15.5555C12.8567 15.9774 13.1837 16.587 13.25 17.25C13.3163 17.9131 13.1165 18.5753 12.6945 19.091C12.2726 19.6067 11.663 19.9337 11 20C11 20.2652 10.8946 20.5196 10.7071 20.7071C10.5196 20.8947 10.2652 21 10 21C9.73478 21 9.48043 20.8947 9.29289 20.7071C9.10536 20.5196 9 20.2652 9 20H8C7.73478 20 7.48043 19.8947 7.29289 19.7071C7.10536 19.5196 7 19.2652 7 19C7 18.7348 7.10536 18.4804 7.29289 18.2929C7.48043 18.1054 7.73478 18 8 18H10.5C10.6326 18 10.7598 17.9473 10.8536 17.8536C10.9473 17.7598 11 17.6326 11 17.5C11 17.3674 10.9473 17.2402 10.8536 17.1465C10.7598 17.0527 10.6326 17 10.5 17H9.5C8.88002 17.0006 8.28193 16.7709 7.82183 16.3553C7.36173 15.9398 7.07245 15.3681 7.01014 14.7513C6.94784 14.1344 7.11695 13.5164 7.48466 13.0173C7.85236 12.5181 8.39242 12.1734 9 12.05V12C9 11.7348 9.10536 11.4805 9.29289 11.2929C9.48043 11.1054 9.73478 11 10 11C10.2652 11 10.5196 11.1054 10.7071 11.2929C10.8946 11.4805 11 11.7348 11 12H12C12.2652 12 12.5196 12.1054 12.7071 12.2929C12.8946 12.4804 13 12.7348 13 13C13 13.2652 12.8946 13.5196 12.7071 13.7071C12.5196 13.8947 12.2652 14 12 14H9.5C9.36739 14 9.24021 14.0527 9.14645 14.1465C9.05268 14.2402 9 14.3674 9 14.5C9 14.6326 9.05268 14.7598 9.14645 14.8536C9.24021 14.9473 9.36739 15 9.5 15Z" fill="black"/>
<path d="M15.46 3.61001L15.07 6.13001L14.88 6.00001C14.3243 5.74747 13.7491 5.54013 13.16 5.38001C12.128 5.11465 11.0655 4.98687 10 5.00001C8.93299 5.00347 7.87089 5.14464 6.84001 5.42001C6.25836 5.58301 5.69003 5.79028 5.14001 6.04001L4.93001 6.14001L4.54001 3.61001C4.45983 3.08716 4.51931 2.5524 4.71243 2.05995C4.90556 1.5675 5.22546 1.13487 5.63969 0.805912C6.05393 0.476957 6.54779 0.263377 7.07118 0.186826C7.59458 0.110274 8.12891 0.173472 8.62001 0.370013L9.62001 0.770013C9.8576 0.864637 10.1224 0.864637 10.36 0.770013L11.36 0.370013C11.8511 0.173472 12.3854 0.110274 12.9088 0.186826C13.4322 0.263377 13.9261 0.476957 14.3403 0.805912C14.7546 1.13487 15.0745 1.5675 15.2676 2.05995C15.4607 2.5524 15.5202 3.08716 15.44 3.61001H15.46Z" fill="black"/>
</svg>
