<svg width="24" height="24" viewBox="0 0 24 24" fill="none" xmlns="http://www.w3.org/2000/svg">
<path d="M21 16H3.00002H2.58002L3.38002 20C3.61055 21.1294 4.2242 22.1444 5.11711 22.8733C6.01003 23.6022 7.12736 24.0002 8.28002 24H15.72C16.8727 24.0002 17.99 23.6022 18.8829 22.8733C19.7758 22.1444 20.3895 21.1294 20.62 20L21.42 16H21ZM11 21C11 21.2652 10.8947 21.5196 10.7071 21.7071C10.5196 21.8946 10.2652 22 10 22C9.7348 22 9.48045 21.8946 9.29291 21.7071C9.10537 21.5196 9.00002 21.2652 9.00002 21V19C9.00002 18.7348 9.10537 18.4804 9.29291 18.2929C9.48045 18.1054 9.7348 18 10 18C10.2652 18 10.5196 18.1054 10.7071 18.2929C10.8947 18.4804 11 18.7348 11 19V21ZM15 21C15 21.2652 14.8947 21.5196 14.7071 21.7071C14.5196 21.8946 14.2652 22 14 22C13.7348 22 13.4804 21.8946 13.2929 21.7071C13.1054 21.5196 13 21.2652 13 21V19C13 18.7348 13.1054 18.4804 13.2929 18.2929C13.4804 18.1054 13.7348 18 14 18C14.2652 18 14.5196 18.1054 14.7071 18.2929C14.8947 18.4804 15 18.7348 15 19V21Z" fill="black"/>
<path d="M21 6H19V5C19 4.34339 18.8707 3.69321 18.6194 3.08658C18.3681 2.47995 17.9998 1.92876 17.5355 1.46447C17.0712 1.00017 16.52 0.631876 15.9134 0.380602C15.3068 0.129329 14.6566 0 14 0H10C8.67392 0 7.40215 0.526784 6.46447 1.46447C5.52678 2.40215 5 3.67392 5 5V6H3C2.20435 6 1.44129 6.31607 0.87868 6.87868C0.316071 7.44129 0 8.20435 0 9V11C0 11.7956 0.316071 12.5587 0.87868 13.1213C1.44129 13.6839 2.20435 14 3 14H21C21.7956 14 22.5587 13.6839 23.1213 13.1213C23.6839 12.5587 24 11.7956 24 11V9C24 8.20435 23.6839 7.44129 23.1213 6.87868C22.5587 6.31607 21.7956 6 21 6ZM7 5C7 4.20435 7.31607 3.44129 7.87868 2.87868C8.44129 2.31607 9.20435 2 10 2H14C14.7956 2 15.5587 2.31607 16.1213 2.87868C16.6839 3.44129 17 4.20435 17 5V6H7V5Z" fill="black"/>
</svg>
