<svg width="28" height="22" viewBox="0 0 28 22" fill="none" xmlns="http://www.w3.org/2000/svg">
<path d="M18.13 12.93V13.93C18.13 14.5866 18.0006 15.2368 17.7493 15.8434C17.4981 16.45 17.1298 17.0012 16.6655 17.4655C16.2012 17.9298 15.65 18.2981 15.0434 18.5494C14.4367 18.8007 13.7866 18.93 13.13 18.93H9.86995C9.85453 19.4769 9.68985 20.0091 9.39374 20.4692C9.09762 20.9292 8.68135 21.2995 8.18995 21.54C7.78012 21.7448 7.3281 21.8509 6.86995 21.85C6.19222 21.854 5.5331 21.6284 4.99995 21.21L1.28995 18.3C0.92862 18.0196 0.636191 17.6602 0.435023 17.2495C0.233854 16.8387 0.129272 16.3874 0.129272 15.93C0.129272 15.4726 0.233854 15.0213 0.435023 14.6105C0.636191 14.1998 0.92862 13.8404 1.28995 13.56L4.99995 10.65C5.44695 10.2933 5.9866 10.0717 6.55533 10.0115C7.12405 9.95123 7.69814 10.0548 8.20995 10.31C8.89148 10.636 9.41635 11.2184 9.66995 11.93H17.1C17.2338 11.926 17.367 11.9489 17.4919 11.9973C17.6167 12.0458 17.7305 12.1188 17.8265 12.2121C17.9226 12.3053 17.9989 12.4169 18.0511 12.5403C18.1032 12.6636 18.13 12.7961 18.13 12.93Z" fill="#5233FF"/>
<path d="M27.87 6.07001C27.8701 6.52734 27.7656 6.97863 27.5645 7.3894C27.3635 7.80016 27.0712 8.15952 26.71 8.44001L23 11.35C22.4594 11.7701 21.7946 11.9987 21.11 12C20.6519 12.0009 20.1998 11.8948 19.79 11.69C19.1085 11.364 18.5836 10.7817 18.33 10.07H10.87C10.6048 10.07 10.3504 9.96466 10.1629 9.77712C9.97535 9.58959 9.87 9.33523 9.87 9.07001V8.07001C9.87 6.74393 10.3968 5.47216 11.3345 4.53448C12.2721 3.5968 13.5439 3.07001 14.87 3.07001H18.13C18.1422 2.51096 18.3103 1.96644 18.6156 1.4979C18.9208 1.02935 19.3508 0.655434 19.8573 0.418337C20.3637 0.181241 20.9263 0.0904046 21.4816 0.156079C22.0369 0.221754 22.5628 0.441325 23 0.790015L26.71 3.70001C27.0712 3.98051 27.3635 4.33987 27.5645 4.75063C27.7656 5.1614 27.8701 5.61269 27.87 6.07001Z" fill="#FF64C8"/>
</svg>
